<svg xmlns="http://www.w3.org/2000/svg" xmlns:xlink="http://www.w3.org/1999/xlink" viewBox="0 0 59 53" fill="#fff" fill-rule="evenodd" stroke="#000" stroke-linecap="round" stroke-linejoin="round"><style><![CDATA[.B{fill:#000}.C{stroke-linejoin:miter}.D{stroke-width:.787}.E{stroke:#fff}.F{stroke:none}.G{stroke-linecap:square}]]></style><use xlink:href="#A" x=".5" y=".5"/><symbol id="A" overflow="visible"><g class="B"><path d="M49.581 44.071v-9.05H0v9.05h49.581z" class="C D E"/><path d="M34.234 40.137h12.592z" class="F"/></g><path d="M34.234 40.137h12.592" fill="none" class="C D E G"/><path d="M34.234 39.743h12.592z" class="B F"/><g class="C D E"><path d="M34.234 39.743h12.592" fill="none" class="G"/><path d="M57.844 35.414v-8.263l-8.263 7.87v9.05l8.263-8.657z" class="B"/></g><path d="M51.155 39.35z" class="B F"/><g class="D E"><path d="M40.924 51.548v-1.967l4.328-6.296v3.935l-4.328 4.328z" class="B"/><path d="M40.924 49.581v1.968H1.181v-1.968h39.743z" class="B C"/><path d="M40.924 49.581H1.181l4.329-6.296h39.743l-4.328 6.296z" class="B"/><g class="C"><path d="M57.844 27.151H8.263L0 35.021h49.581l8.263-7.87z" class="B"/><path d="M42.891 30.299V5.115H8.657v25.184h34.234z" class="B"/></g></g><use xlink:href="#C" class="B F"/><g class="E"><g class="C D"><use xlink:href="#C" fill="none"/><path d="M48.794 0H14.559L8.657 5.115h34.234L48.794 0z" class="B"/></g><path d="M48.793 24.79V0l-5.902 5.115v25.184l5.902-5.509z" class="B D"/></g><path d="M48.4 17.707z" class="B F"/></symbol><defs ><path id="C" d="M11.801 10.633c0-2.361 2.361-2.754 2.361-2.754h22.823c3.148 0 2.754 2.755 2.754 2.755v14.166c0 1.967-2.361 2.754-2.361 2.754H14.556c-1.967 0-2.754-2.361-2.754-2.361z"/></defs></svg>